# This file uses centimeters as units for non-parametric coordinates.

mtllib station.mtl
g default
v -4.328668 0.008145 -4.138709
v 97.503944 0.008145 -4.138709
v -4.328668 -0.613187 -4.138709
v 97.503944 -0.613187 -4.138709
v -4.328668 0.008145 -22.960203
v 97.503944 0.008145 -22.960203
v 97.503944 -0.613187 -22.960203
v -4.328668 -0.613187 -22.960203
v -4.328668 1.948859 -4.138709
v 97.503944 1.948859 -4.138709
v 97.503944 1.948859 -22.960203
v -4.328668 1.948859 -22.960203
v -4.328668 0.008145 3.562059
v -4.328668 -0.613187 3.562059
v 97.503944 -0.613187 3.562059
v 97.503944 0.008145 3.562059
v 97.503944 0.493108 3.562059
v -4.328668 0.493108 3.562059
v -4.328668 0.008145 31.636031
v 97.503944 0.008145 31.636031
v 97.503944 -0.613187 31.636031
v -4.328668 -0.613187 31.636031
v -4.328668 1.948859 12.814531
v 97.503944 1.948859 12.814531
v 97.503944 1.948859 31.636031
v -4.328668 1.948859 31.636031
v 97.503944 0.008145 12.814531
v 97.503944 -0.613187 12.814531
v -4.328668 -0.613187 12.814531
v -4.328668 0.008145 12.814531
v -4.328668 -0.613187 5.113766
v -4.328668 0.008145 5.113766
v 97.503944 -0.613187 5.113766
v 97.503944 0.008145 5.113766
v -4.328668 0.493108 5.113766
v 97.503944 0.493108 5.113766
vt 0.211452 0.055772
vt 0.824250 0.070777
vt 0.822925 0.074710
vt 0.212769 0.059650
vt 0.791535 0.706036
vt 0.132922 0.707152
vt 0.132715 0.585422
vt 0.791329 0.584306
vt 0.869512 0.184792
vt 0.865582 0.186772
vt 0.170638 0.185552
vt 0.166572 0.183693
vt 0.791557 0.718588
vt 0.132943 0.719704
vt 0.828513 0.058510
vt 0.880464 0.176445
vt 0.206924 0.043721
vt 0.155595 0.175786
vt 0.166229 0.237573
vt 0.162012 0.237215
vt 0.869594 0.238809
vt 0.873828 0.238422
vt 0.791641 0.768393
vt 0.133027 0.769509
vt 0.791646 0.771530
vt 0.133033 0.772646
vt 0.209315 0.415855
vt 0.210767 0.412002
vt 0.817809 0.426338
vt 0.819005 0.430270
vt 0.791774 0.847059
vt 0.791981 0.968790
vt 0.133367 0.969906
vt 0.133161 0.848176
vt 0.869519 0.303431
vt 0.865590 0.301444
vt 0.170625 0.300027
vt 0.166650 0.302007
vt 0.791753 0.834508
vt 0.133139 0.835624
vt 0.880212 0.311708
vt 0.823312 0.442521
vt 0.205041 0.427989
vt 0.155687 0.310335
vt 0.166249 0.248024
vt 0.162020 0.248442
vt 0.869581 0.249382
vt 0.873843 0.249746
vt 0.791669 0.784702
vt 0.133055 0.785818
vt 0.133050 0.782682
vt 0.791663 0.781566
vt 0.877109 0.238453
vt 0.877139 0.249646
vt 0.158743 0.248431
vt 0.158712 0.237319
vn 0.000000 0.000000 -1.000000
vn 0.000000 0.000000 -1.000000
vn 0.000000 0.000000 -1.000000
vn 0.000000 0.000000 -1.000000
vn 0.000000 1.000000 0.000000
vn 0.000000 1.000000 0.000000
vn 0.000000 1.000000 0.000000
vn 0.000000 1.000000 0.000000
vn 1.000000 0.000000 0.000000
vn 1.000000 0.000000 0.000000
vn 1.000000 0.000000 0.000000
vn 1.000000 0.000000 0.000000
vn 0.000000 -1.000000 0.000000
vn 0.000000 -1.000000 0.000000
vn 0.000000 -1.000000 0.000000
vn 0.000000 -1.000000 0.000000
vn -1.000000 0.000000 0.000000
vn -1.000000 0.000000 0.000000
vn -1.000000 0.000000 0.000000
vn -1.000000 0.000000 0.000000
vn 0.000000 0.000000 1.000000
vn 0.000000 0.000000 1.000000
vn 0.000000 0.000000 1.000000
vn 0.000000 0.000000 1.000000
vn 1.000000 0.000000 0.000000
vn 1.000000 0.000000 0.000000
vn 1.000000 0.000000 0.000000
vn 1.000000 0.000000 0.000000
vn 0.000000 0.000000 -1.000000
vn 0.000000 0.000000 -1.000000
vn 0.000000 0.000000 -1.000000
vn 0.000000 0.000000 -1.000000
vn -1.000000 0.000000 0.000000
vn -1.000000 0.000000 0.000000
vn -1.000000 0.000000 0.000000
vn -1.000000 0.000000 0.000000
vn -1.000000 0.000000 0.000000
vn -1.000000 0.000000 0.000000
vn 0.000000 -1.000000 0.000000
vn 0.000000 -1.000000 0.000000
vn 1.000000 0.000000 0.000000
vn 1.000000 0.000000 0.000000
vn 0.000000 1.000000 0.000000
vn 0.000000 1.000000 0.000000
vn 0.000000 1.000000 0.000000
vn 0.000000 1.000000 0.000000
vn 0.000000 0.000000 -1.000000
vn 0.000000 0.000000 -1.000000
vn 0.000000 0.000000 -1.000000
vn 0.000000 0.000000 -1.000000
vn 0.000000 0.000000 1.000000
vn 0.000000 0.000000 1.000000
vn 0.000000 0.000000 1.000000
vn 0.000000 0.000000 1.000000
vn 0.000000 1.000000 0.000000
vn 0.000000 1.000000 0.000000
vn 0.000000 1.000000 0.000000
vn 0.000000 1.000000 0.000000
vn 1.000000 0.000000 0.000000
vn 1.000000 0.000000 0.000000
vn 1.000000 0.000000 0.000000
vn 1.000000 0.000000 0.000000
vn 0.000000 -1.000000 0.000000
vn 0.000000 -1.000000 0.000000
vn 0.000000 -1.000000 0.000000
vn 0.000000 -1.000000 0.000000
vn -1.000000 0.000000 0.000000
vn -1.000000 0.000000 0.000000
vn -1.000000 0.000000 0.000000
vn -1.000000 0.000000 0.000000
vn 0.000000 0.000000 -1.000000
vn 0.000000 0.000000 -1.000000
vn 0.000000 0.000000 -1.000000
vn 0.000000 0.000000 -1.000000
vn 1.000000 0.000000 0.000000
vn 1.000000 0.000000 0.000000
vn 1.000000 0.000000 0.000000
vn 1.000000 0.000000 0.000000
vn 0.000000 0.000000 1.000000
vn 0.000000 0.000000 1.000000
vn 0.000000 0.000000 1.000000
vn 0.000000 0.000000 1.000000
vn -1.000000 0.000000 0.000000
vn -1.000000 0.000000 0.000000
vn -1.000000 0.000000 0.000000
vn -1.000000 0.000000 0.000000
vn -1.000000 0.000000 0.000000
vn -1.000000 0.000000 0.000000
vn 0.000000 -1.000000 0.000000
vn 0.000000 -1.000000 0.000000
vn 1.000000 0.000000 0.000000
vn 1.000000 0.000000 0.000000
vn 0.000000 1.000000 0.000000
vn 0.000000 1.000000 0.000000
vn 0.000000 1.000000 0.000000
vn 0.000000 1.000000 0.000000
vn 0.000000 0.000000 1.000000
vn 0.000000 0.000000 1.000000
vn 0.000000 0.000000 1.000000
vn 0.000000 0.000000 1.000000
vn -1.000000 0.000000 0.000000
vn -1.000000 0.000000 0.000000
vn -1.000000 0.000000 0.000000
vn -1.000000 0.000000 0.000000
vn 0.000000 -1.000000 0.000000
vn 0.000000 -1.000000 0.000000
vn 0.000000 -1.000000 0.000000
vn 0.000000 -1.000000 0.000000
vn 1.000000 0.000000 0.000000
vn 1.000000 0.000000 0.000000
vn 1.000000 0.000000 0.000000
vn 1.000000 0.000000 0.000000
vn 1.000000 0.000000 0.000000
vn 1.000000 0.000000 0.000000
vn 1.000000 0.000000 0.000000
vn 1.000000 0.000000 0.000000
vn 0.000000 1.000000 0.000000
vn 0.000000 1.000000 0.000000
vn 0.000000 1.000000 0.000000
vn 0.000000 1.000000 0.000000
vn -1.000000 0.000000 0.000000
vn -1.000000 0.000000 0.000000
vn -1.000000 0.000000 0.000000
vn -1.000000 0.000000 0.000000
s off
g pCube3
usemtl lambert2SG
f 5/1/1 6/2/2 7/3/3 8/4/4
f 9/5/5 10/6/6 11/7/7 12/8/8
s 1
f 2/9/9 4/10/10 7/3/11 6/2/12
s 2
f 4/10/13 3/11/14 8/4/15 7/3/16
s 3
f 3/11/17 1/12/18 5/1/19 8/4/20
s off
f 1/13/21 2/14/22 10/6/23 9/5/24
f 2/9/25 6/2/26 11/15/27 10/16/28
f 6/2/29 5/1/30 12/17/31 11/15/32
f 5/1/33 1/12/34 9/18/35 12/17/36
s 3
f 14/19/37 13/20/38 1/12/18 3/11/17
s 2
f 15/21/39 14/19/40 3/11/14 4/10/13
s 1
f 2/9/9 16/22/41 15/21/42 4/10/10
s off
f 13/23/43 16/24/44 2/14/45 1/13/46
f 16/24/47 13/23/48 18/25/49 17/26/50
f 19/27/51 22/28/52 21/29/53 20/30/54
f 23/31/55 26/32/56 25/33/57 24/34/58
s 4
f 27/35/59 20/30/60 21/29/61 28/36/62
s 5
f 28/36/63 21/29/64 22/28/65 29/37/66
s 6
f 29/37/67 22/28/68 19/27/69 30/38/70
s off
f 30/39/71 23/31/72 24/34/73 27/40/74
f 27/35/75 24/41/76 25/42/77 20/30/78
f 20/30/79 25/42/80 26/43/81 19/27/82
f 19/27/83 26/43/84 23/44/85 30/38/86
s 6
f 31/45/87 29/37/67 30/38/70 32/46/88
s 5
f 33/47/89 28/36/63 29/37/66 31/45/90
s 4
f 27/35/59 28/36/62 33/47/91 34/48/92
s off
f 32/49/93 30/39/94 27/40/95 34/50/96
f 34/50/97 36/51/98 35/52/99 32/49/100
f 14/19/101 31/45/102 32/46/103 13/20/104
f 15/21/105 33/47/106 31/45/107 14/19/108
f 16/22/109 34/48/110 33/47/111 15/21/112
f 17/53/113 36/54/114 34/48/115 16/22/116
f 18/25/117 35/52/118 36/51/119 17/26/120
f 13/20/121 32/46/122 35/55/123 18/56/124
g default
v 31.830628 8.339337 -15.695632
v 58.986620 8.339337 -15.695632
v 31.830628 8.339337 -22.284632
v 58.986620 8.339337 -22.284632
v 31.830628 8.549155 -15.695632
v 58.986620 8.549155 -15.695632
v 58.986620 8.549155 -22.284632
v 31.830628 8.549155 -22.284632
v 45.408624 9.038903 -15.695632
v 45.408624 9.038903 -22.284632
v 45.408624 9.248720 -22.284632
v 45.408624 9.248720 -15.695632
vt 0.706025 0.683504
vt 0.375763 0.682101
vt 0.376969 0.398115
vt 0.707231 0.399518
vt 0.015074 0.682194
vt 0.345337 0.683378
vt 0.344319 0.967364
vt 0.014056 0.966180
vt 0.809344 0.272615
vt 0.809344 0.252050
vt 0.972720 0.014833
vt 0.976892 0.049352
vt 0.015860 0.019687
vt 0.346125 0.019687
vt 0.346125 0.088982
vt 0.015860 0.088982
vt 0.645932 0.094440
vt 0.809336 0.331661
vt 0.809336 0.352659
vt 0.641819 0.129357
vt 0.015860 0.109470
vt 0.346125 0.109470
vt 0.346125 0.178766
vt 0.015860 0.178766
vt 0.016092 0.398208
vt 0.346355 0.399391
vt 0.972740 0.094440
vt 0.976854 0.129357
vt 0.374556 0.966087
vt 0.704819 0.967490
vt 0.645967 0.014833
vt 0.641796 0.049352
vn 0.051454 0.998675 0.000000
vn 0.051454 0.998675 0.000000
vn 0.051454 0.998675 0.000000
vn 0.051454 0.998675 0.000000
vn -0.051454 -0.998675 0.000000
vn -0.051454 -0.998675 0.000000
vn -0.051454 -0.998675 0.000000
vn -0.051454 -0.998675 0.000000
vn 0.000000 0.000000 1.000000
vn 0.000000 0.000000 1.000000
vn 0.000000 0.000000 1.000000
vn 0.000000 0.000000 1.000000
vn 1.000000 0.000000 0.000000
vn 1.000000 0.000000 0.000000
vn 1.000000 0.000000 0.000000
vn 1.000000 0.000000 0.000000
vn -0.000000 0.000000 -1.000000
vn -0.000000 0.000000 -1.000000
vn -0.000000 0.000000 -1.000000
vn -0.000000 0.000000 -1.000000
vn -1.000000 0.000000 0.000000
vn -1.000000 0.000000 0.000000
vn -1.000000 0.000000 0.000000
vn -1.000000 0.000000 0.000000
vn 0.051454 -0.998675 0.000000
vn 0.051454 -0.998675 0.000000
vn 0.051454 -0.998675 0.000000
vn 0.051454 -0.998675 0.000000
vn 0.000000 0.000000 -1.000000
vn 0.000000 0.000000 -1.000000
vn 0.000000 0.000000 -1.000000
vn 0.000000 0.000000 -1.000000
vn -0.051454 0.998675 0.000000
vn -0.051454 0.998675 0.000000
vn -0.051454 0.998675 0.000000
vn -0.051454 0.998675 0.000000
vn -0.000000 0.000000 1.000000
vn -0.000000 0.000000 1.000000
vn -0.000000 0.000000 1.000000
vn -0.000000 0.000000 1.000000
s off
g pPlane1 group2
usemtl lambert3SG
f 47/57/125 48/58/126 42/59/127 43/60/128
f 45/61/129 46/62/130 40/63/131 38/64/132
f 48/65/133 45/66/134 38/67/135 42/68/136
f 38/69/137 40/70/138 43/71/139 42/72/140
f 40/73/141 46/74/142 47/75/143 43/76/144
f 39/77/145 37/78/146 41/79/147 44/80/148
f 37/81/149 39/82/150 46/62/151 45/61/152
f 47/75/153 46/74/154 39/83/155 44/84/156
f 41/85/157 48/58/158 47/57/159 44/86/160
f 37/87/161 45/66/162 48/65/163 41/88/164
g default
v 31.830628 8.339337 31.046971
v 58.986620 8.339337 31.046971
v 31.830628 8.339337 24.457971
v 58.986620 8.339337 24.457971
v 31.830628 8.549155 31.046971
v 58.986620 8.549155 31.046971
v 58.986620 8.549155 24.457971
v 31.830628 8.549155 24.457971
v 45.408624 9.038903 31.046971
v 45.408624 9.038903 24.457971
v 45.408624 9.248720 24.457971
v 45.408624 9.248720 31.046971
vt 0.706025 0.683504
vt 0.375763 0.682101
vt 0.376969 0.398115
vt 0.707231 0.399518
vt 0.015074 0.682194
vt 0.345337 0.683378
vt 0.344319 0.967364
vt 0.014056 0.966180
vt 0.809344 0.272615
vt 0.809344 0.252050
vt 0.972720 0.014833
vt 0.976892 0.049352
vt 0.015860 0.019687
vt 0.346125 0.019687
vt 0.346125 0.088982
vt 0.015860 0.088982
vt 0.645932 0.094440
vt 0.809336 0.331661
vt 0.809336 0.352659
vt 0.641819 0.129357
vt 0.015860 0.109470
vt 0.346125 0.109470
vt 0.346125 0.178766
vt 0.015860 0.178766
vt 0.016092 0.398208
vt 0.346355 0.399391
vt 0.972740 0.094440
vt 0.976854 0.129357
vt 0.374556 0.966087
vt 0.704819 0.967490
vt 0.645967 0.014833
vt 0.641796 0.049352
vn 0.051454 0.998675 0.000000
vn 0.051454 0.998675 0.000000
vn 0.051454 0.998675 0.000000
vn 0.051454 0.998675 0.000000
vn -0.051454 -0.998675 0.000000
vn -0.051454 -0.998675 0.000000
vn -0.051454 -0.998675 0.000000
vn -0.051454 -0.998675 0.000000
vn 0.000000 0.000000 1.000000
vn 0.000000 0.000000 1.000000
vn 0.000000 0.000000 1.000000
vn 0.000000 0.000000 1.000000
vn 1.000000 0.000000 0.000000
vn 1.000000 0.000000 0.000000
vn 1.000000 0.000000 0.000000
vn 1.000000 0.000000 0.000000
vn -0.000000 0.000000 -1.000000
vn -0.000000 0.000000 -1.000000
vn -0.000000 0.000000 -1.000000
vn -0.000000 0.000000 -1.000000
vn -1.000000 0.000000 0.000000
vn -1.000000 0.000000 0.000000
vn -1.000000 0.000000 0.000000
vn -1.000000 0.000000 0.000000
vn 0.051454 -0.998675 0.000000
vn 0.051454 -0.998675 0.000000
vn 0.051454 -0.998675 0.000000
vn 0.051454 -0.998675 0.000000
vn 0.000000 0.000000 -1.000000
vn 0.000000 0.000000 -1.000000
vn 0.000000 0.000000 -1.000000
vn 0.000000 0.000000 -1.000000
vn -0.051454 0.998675 0.000000
vn -0.051454 0.998675 0.000000
vn -0.051454 0.998675 0.000000
vn -0.051454 0.998675 0.000000
vn -0.000000 0.000000 1.000000
vn -0.000000 0.000000 1.000000
vn -0.000000 0.000000 1.000000
vn -0.000000 0.000000 1.000000
s off
g group2 pPlane2
usemtl lambert3SG
f 59/89/165 60/90/166 54/91/167 55/92/168
f 57/93/169 58/94/170 52/95/171 50/96/172
f 60/97/173 57/98/174 50/99/175 54/100/176
f 50/101/177 52/102/178 55/103/179 54/104/180
f 52/105/181 58/106/182 59/107/183 55/108/184
f 51/109/185 49/110/186 53/111/187 56/112/188
f 49/113/189 51/114/190 58/94/191 57/93/192
f 59/107/193 58/106/194 51/115/195 56/116/196
f 53/117/197 60/90/198 59/89/199 56/118/200
f 49/119/201 57/98/202 60/97/203 53/120/204
